<?xml version="1.0" encoding="utf-8"?>
<svg xmlns="http://www.w3.org/2000/svg" viewBox="0 0 50 50" fill="#ffffff"><path d="M 23 5 C 21.661547 5 20.557645 5.9196036 20.164062 7.1425781 L 17.773438 7.6035156 A 1.0001 1.0001 0 0 0 17.771484 7.6035156 C 16.339255 7.8801072 15.18964 8.836057 14.550781 10.099609 C 9.8251151 11.723797 6.9206293 15.297809 5.2714844 19.310547 C 3.6578804 23.236806 3.1982736 27.581767 3.1699219 31.271484 C 2.479239 31.936883 2.0389614 32.769824 2.0039062 33.621094 C 1.9610832 34.660987 2.2836625 35.659257 2.7148438 36.583984 C 3.5772063 38.43344 4.8851947 39.979837 5.5253906 40.613281 C 6.1991453 41.280184 6.7792932 42.060717 7.5566406 42.748047 C 8.3339881 43.435377 9.390416 44 10.722656 44 L 39.277344 44 C 40.609584 44 41.666012 43.435377 42.443359 42.748047 C 43.220707 42.060717 43.800855 41.280184 44.474609 40.613281 C 45.11492 39.979724 46.422811 38.43354 47.285156 36.583984 C 47.716329 35.659206 48.038918 34.659005 47.996094 33.619141 C 47.961044 32.76804 47.520604 31.936697 46.830078 31.271484 C 46.801838 27.558843 46.341841 23.213022 44.738281 19.292969 C 43.088155 15.259078 40.178177 11.675293 35.433594 10.066406 C 34.791394 8.8190771 33.648452 7.8777275 32.228516 7.6035156 A 1.0001 1.0001 0 0 0 32.226562 7.6035156 L 29.835938 7.1425781 C 29.442355 5.9196036 28.338453 5 27 5 L 23 5 z M 23 7 L 27 7 C 27.519686 7 27.963096 7.4336788 27.990234 8.0507812 A 1.0001 1.0001 0 0 0 28 8.1464844 L 28 25 A 1.0001 1.0001 0 1 0 30 25 L 30 9.2109375 L 31.847656 9.5683594 C 33.062056 9.8028788 34 10.961448 34 12.382812 L 34 17 A 1.0001 1.0001 0 1 0 36 17 L 36 12.447266 C 39.411199 13.993949 41.541756 16.756166 42.888672 20.048828 C 44.34413 23.606834 44.821855 27.742126 44.851562 31.285156 C 42.858392 31.86419 34.905541 34 25 34 C 15.094459 34 7.1416079 31.86419 5.1484375 31.285156 C 5.1783812 27.766367 5.6568364 23.633178 7.1210938 20.070312 C 8.4680746 16.792808 10.594172 14.031668 14 12.476562 L 14 17 A 1.0001 1.0001 0 1 0 16 17 L 16 12.382812 C 16 10.961448 16.937944 9.8028788 18.152344 9.5683594 L 20 9.2109375 L 20 25 A 1.0001 1.0001 0 1 0 22 25 L 22 8.1679688 A 1.0001 1.0001 0 0 0 22.013672 8.0253906 C 22.052542 7.4227241 22.487889 7 23 7 z M 45.865234 33.076172 C 45.949076 33.256423 45.987892 33.454588 45.998047 33.701172 C 46.020317 34.241933 45.823609 34.985559 45.472656 35.738281 C 44.770751 37.243725 43.471049 38.792964 43.068359 39.191406 C 42.267114 39.984503 41.67834 40.75383 41.117188 41.25 C 40.556035 41.74617 40.104103 42 39.277344 42 L 10.722656 42 C 9.8958969 42 9.443965 41.74617 8.8828125 41.25 C 8.32166 40.75383 7.732886 39.984503 6.9316406 39.191406 C 6.5288366 38.79285 5.2292311 37.243576 4.5273438 35.738281 C 4.1764 34.985634 3.979682 34.24395 4.0019531 33.703125 C 4.0120832 33.45713 4.0514011 33.258436 4.1347656 33.078125 C 5.2721625 33.425089 14.040608 36 25 36 C 35.960287 36 44.729043 33.422786 45.865234 33.076172 z" fill="#ffffff"/></svg>
