<?xml version="1.0" encoding="utf-8"?>
<svg xmlns="http://www.w3.org/2000/svg" viewBox="0 0 50 50" fill="#ffffff"><path d="M 12 0 C 10.90625 0 10 0.90625 10 2 L 10 4 L 4 4 C 2.90625 4 2 4.90625 2 6 L 2 46 C 2 47.09375 2.90625 48 4 48 L 46 48 C 47.09375 48 48 47.09375 48 46 L 48 38 C 48.003906 37.640625 47.816406 37.304688 47.503906 37.121094 C 47.191406 36.941406 46.808594 36.941406 46.496094 37.121094 C 46.183594 37.304688 45.996094 37.640625 46 38 L 46 46 L 4 46 L 4 16 L 46 16 L 46 23 C 45.996094 23.359375 46.183594 23.695313 46.496094 23.878906 C 46.808594 24.058594 47.191406 24.058594 47.503906 23.878906 C 47.816406 23.695313 48.003906 23.359375 48 23 L 48 6 C 48 4.90625 47.09375 4 46 4 L 40 4 L 40 2 C 40 0.90625 39.09375 0 38 0 L 36 0 C 34.90625 0 34 0.90625 34 2 L 34 4 L 16 4 L 16 2 C 16 0.90625 15.09375 0 14 0 Z M 12 2 L 14 2 L 14 8 L 12 8 L 12 5.167969 C 12.019531 5.058594 12.019531 4.949219 12 4.84375 Z M 36 2 L 38 2 L 38 4.832031 C 37.980469 4.941406 37.980469 5.050781 38 5.15625 L 38 8 L 36 8 Z M 4 6 L 10 6 L 10 8 C 10 9.09375 10.90625 10 12 10 L 14 10 C 15.09375 10 16 9.09375 16 8 L 16 6 L 34 6 L 34 8 C 34 9.09375 34.90625 10 36 10 L 38 10 C 39.09375 10 40 9.09375 40 8 L 40 6 L 46 6 L 46 14 L 4 14 Z M 40.640625 22.4375 C 40.234375 22.429688 39.863281 22.667969 39.699219 23.042969 C 39.539063 23.417969 39.621094 23.851563 39.90625 24.140625 L 44.550781 29 L 27 29 C 26.640625 28.996094 26.304688 29.183594 26.121094 29.496094 C 25.941406 29.808594 25.941406 30.191406 26.121094 30.503906 C 26.304688 30.816406 26.640625 31.003906 27 31 L 44.652344 31 L 39.90625 35.964844 C 39.523438 36.363281 39.539063 36.996094 39.9375 37.378906 C 40.335938 37.761719 40.96875 37.746094 41.351563 37.347656 L 48.328125 30.050781 L 41.351563 22.761719 C 41.167969 22.5625 40.910156 22.445313 40.640625 22.4375 Z" fill="#ffffff"/></svg>
