<?xml version="1.0" encoding="utf-8"?>
<svg xmlns="http://www.w3.org/2000/svg" viewBox="0 0 50 50" fill="#ffffff"><path d="M 31.472656 2 L 24.625 8 L 5 8 L 5 46 L 25.371094 46 L 33 39.457031 L 33 2 Z M 31 5.074219 L 31 38.542969 L 24.628906 44 L 7 44 L 7 10 L 25.375 10 Z M 35 8 C 34.449219 8 34 8.449219 34 9 C 34 9.550781 34.449219 10 35 10 C 35.550781 10 36 9.550781 36 9 C 36 8.449219 35.550781 8 35 8 Z M 38 8 C 37.449219 8 37 8.449219 37 9 C 37 9.550781 37.449219 10 38 10 C 38.550781 10 39 9.550781 39 9 C 39 8.449219 38.550781 8 38 8 Z M 41 8 C 40.449219 8 40 8.449219 40 9 C 40 9.550781 40.449219 10 41 10 C 41.550781 10 42 9.550781 42 9 C 42 8.449219 41.550781 8 41 8 Z M 44 8 C 43.449219 8 43 8.449219 43 9 C 43 9.550781 43.449219 10 44 10 C 44.550781 10 45 9.550781 45 9 C 45 8.449219 44.550781 8 44 8 Z M 24 11 C 23.449219 11 23 11.449219 23 12 C 23 12.550781 23.449219 13 24 13 C 24.550781 13 25 12.550781 25 12 C 25 11.449219 24.550781 11 24 11 Z M 44 11 C 43.449219 11 43 11.449219 43 12 C 43 12.550781 43.449219 13 44 13 C 44.550781 13 45 12.550781 45 12 C 45 11.449219 44.550781 11 44 11 Z M 24 14 C 23.449219 14 23 14.449219 23 15 C 23 15.550781 23.449219 16 24 16 C 24.550781 16 25 15.550781 25 15 C 25 14.449219 24.550781 14 24 14 Z M 44 14 C 43.449219 14 43 14.449219 43 15 C 43 15.550781 43.449219 16 44 16 C 44.550781 16 45 15.550781 45 15 C 45 14.449219 44.550781 14 44 14 Z M 24 17 C 23.449219 17 23 17.449219 23 18 C 23 18.550781 23.449219 19 24 19 C 24.550781 19 25 18.550781 25 18 C 25 17.449219 24.550781 17 24 17 Z M 44 17 C 43.449219 17 43 17.449219 43 18 C 43 18.550781 43.449219 19 44 19 C 44.550781 19 45 18.550781 45 18 C 45 17.449219 44.550781 17 44 17 Z M 44 20 C 43.449219 20 43 20.449219 43 21 C 43 21.550781 43.449219 22 44 22 C 44.550781 22 45 21.550781 45 21 C 45 20.449219 44.550781 20 44 20 Z M 22 22 C 18.144531 22 15 25.144531 15 29 L 15 32 L 12 32 L 16 36 L 20 32 L 17 32 L 17 29 C 17 26.226563 19.226563 24 22 24 L 27 24 L 27 22 Z M 44 23 C 43.449219 23 43 23.449219 43 24 C 43 24.550781 43.449219 25 44 25 C 44.550781 25 45 24.550781 45 24 C 45 23.449219 44.550781 23 44 23 Z M 24 26 C 23.449219 26 23 26.449219 23 27 C 23 27.550781 23.449219 28 24 28 C 24.550781 28 25 27.550781 25 27 C 25 26.449219 24.550781 26 24 26 Z M 44 26 C 43.449219 26 43 26.449219 43 27 C 43 27.550781 43.449219 28 44 28 C 44.550781 28 45 27.550781 45 27 C 45 26.449219 44.550781 26 44 26 Z M 24 29 C 23.449219 29 23 29.449219 23 30 C 23 30.550781 23.449219 31 24 31 C 24.550781 31 25 30.550781 25 30 C 25 29.449219 24.550781 29 24 29 Z M 44 29 C 43.449219 29 43 29.449219 43 30 C 43 30.550781 43.449219 31 44 31 C 44.550781 31 45 30.550781 45 30 C 45 29.449219 44.550781 29 44 29 Z M 24 32 C 23.449219 32 23 32.449219 23 33 C 23 33.550781 23.449219 34 24 34 C 24.550781 34 25 33.550781 25 33 C 25 32.449219 24.550781 32 24 32 Z M 44 32 C 43.449219 32 43 32.449219 43 33 C 43 33.550781 43.449219 34 44 34 C 44.550781 34 45 33.550781 45 33 C 45 32.449219 44.550781 32 44 32 Z M 24 35 C 23.449219 35 23 35.449219 23 36 C 23 36.550781 23.449219 37 24 37 C 24.550781 37 25 36.550781 25 36 C 25 35.449219 24.550781 35 24 35 Z M 44 35 C 43.449219 35 43 35.449219 43 36 C 43 36.550781 43.449219 37 44 37 C 44.550781 37 45 36.550781 45 36 C 45 35.449219 44.550781 35 44 35 Z M 24 38 C 23.449219 38 23 38.449219 23 39 C 23 39.550781 23.449219 40 24 40 C 24.550781 40 25 39.550781 25 39 C 25 38.449219 24.550781 38 24 38 Z M 44 38 C 43.449219 38 43 38.449219 43 39 C 43 39.550781 43.449219 40 44 40 C 44.550781 40 45 39.550781 45 39 C 45 38.449219 44.550781 38 44 38 Z M 24 41 C 23.449219 41 23 41.449219 23 42 C 23 42.550781 23.449219 43 24 43 C 24.550781 43 25 42.550781 25 42 C 25 41.449219 24.550781 41 24 41 Z M 44 41 C 43.449219 41 43 41.449219 43 42 C 43 42.550781 43.449219 43 44 43 C 44.550781 43 45 42.550781 45 42 C 45 41.449219 44.550781 41 44 41 Z M 29 44 C 28.449219 44 28 44.449219 28 45 C 28 45.550781 28.449219 46 29 46 C 29.550781 46 30 45.550781 30 45 C 30 44.449219 29.550781 44 29 44 Z M 32 44 C 31.449219 44 31 44.449219 31 45 C 31 45.550781 31.449219 46 32 46 C 32.550781 46 33 45.550781 33 45 C 33 44.449219 32.550781 44 32 44 Z M 35 44 C 34.449219 44 34 44.449219 34 45 C 34 45.550781 34.449219 46 35 46 C 35.550781 46 36 45.550781 36 45 C 36 44.449219 35.550781 44 35 44 Z M 38 44 C 37.449219 44 37 44.449219 37 45 C 37 45.550781 37.449219 46 38 46 C 38.550781 46 39 45.550781 39 45 C 39 44.449219 38.550781 44 38 44 Z M 41 44 C 40.449219 44 40 44.449219 40 45 C 40 45.550781 40.449219 46 41 46 C 41.550781 46 42 45.550781 42 45 C 42 44.449219 41.550781 44 41 44 Z M 44 44 C 43.449219 44 43 44.449219 43 45 C 43 45.550781 43.449219 46 44 46 C 44.550781 46 45 45.550781 45 45 C 45 44.449219 44.550781 44 44 44 Z" fill="#ffffff"/></svg>
