<?xml version="1.0" encoding="utf-8"?>
<svg xmlns="http://www.w3.org/2000/svg" viewBox="0 0 50 50" fill="#ffffff"><path d="M 18 9 L 17.25 17 L 10 17 L 9.8125 19 L 17.0625 19 L 15.84375 32 L 8.59375 32 L 8.40625 34 L 15.65625 34 L 15 41 L 17 41 L 17.65625 34 L 30.65625 34 L 30 41 L 32 41 L 32.65625 34 L 40.40625 34 L 40.59375 32 L 32.84375 32 L 34.0625 19 L 41.8125 19 L 42 17 L 34.25 17 L 35 9 L 33 9 L 32.25 17 L 19.25 17 L 20 9 Z M 19.0625 19 L 32.0625 19 L 30.84375 32 L 17.84375 32 Z" fill="#ffffff"/></svg>
