<?xml version="1.0" encoding="utf-8"?>
<svg xmlns="http://www.w3.org/2000/svg" viewBox="0 0 50 50" fill="#ffffff"><path d="M 12.8125 0 C 12.335938 0.0898438 11.992188 0.511719 12 1 L 12 40 C 12 41.871094 12.917969 43.394531 14.09375 44.40625 C 15.269531 45.417969 16.683594 46 18 46 L 33 46 C 35.746094 46 38 43.746094 38 41 L 38 10 C 38 7.253906 35.746094 5 33 5 L 17 5 L 17 1 C 17 0.449219 16.550781 0 16 0 L 13 0 C 12.96875 0 12.9375 0 12.90625 0 C 12.875 0 12.84375 0 12.8125 0 Z M 14 2 L 15 2 L 15 6 C 15 6.550781 15.449219 7 16 7 L 33 7 C 34.65625 7 36 8.34375 36 10 L 36 41 C 36 42.65625 34.65625 44 33 44 L 18 44 C 17.316406 44 16.230469 43.617188 15.40625 42.90625 C 14.582031 42.195313 14 41.226563 14 40 Z M 19 10 C 17.355469 10 16 11.355469 16 13 L 16 21 C 16 22.644531 17.355469 24 19 24 L 31 24 C 32.644531 24 34 22.644531 34 21 L 34 13 C 34 11.355469 32.644531 10 31 10 Z M 19 12 L 31 12 C 31.554688 12 32 12.445313 32 13 L 32 21 C 32 21.554688 31.554688 22 31 22 L 19 22 C 18.445313 22 18 21.554688 18 21 L 18 13 C 18 12.445313 18.445313 12 19 12 Z M 19 26 C 17.894531 26 17 26.894531 17 28 C 17 29.105469 17.894531 30 19 30 C 20.105469 30 21 29.105469 21 28 C 21 26.894531 20.105469 26 19 26 Z M 25 26 C 23.894531 26 23 26.894531 23 28 C 23 29.105469 23.894531 30 25 30 C 26.105469 30 27 29.105469 27 28 C 27 26.894531 26.105469 26 25 26 Z M 31 26 C 29.894531 26 29 26.894531 29 28 C 29 29.105469 29.894531 30 31 30 C 32.105469 30 33 29.105469 33 28 C 33 26.894531 32.105469 26 31 26 Z M 19 32 C 17.894531 32 17 32.894531 17 34 C 17 35.105469 17.894531 36 19 36 C 20.105469 36 21 35.105469 21 34 C 21 32.894531 20.105469 32 19 32 Z M 25 32 C 23.894531 32 23 32.894531 23 34 C 23 35.105469 23.894531 36 25 36 C 26.105469 36 27 35.105469 27 34 C 27 32.894531 26.105469 32 25 32 Z M 31 32 C 29.894531 32 29 32.894531 29 34 C 29 35.105469 29.894531 36 31 36 C 32.105469 36 33 35.105469 33 34 C 33 32.894531 32.105469 32 31 32 Z M 19 38 C 17.894531 38 17 38.894531 17 40 C 17 41.105469 17.894531 42 19 42 C 20.105469 42 21 41.105469 21 40 C 21 38.894531 20.105469 38 19 38 Z M 25 38 C 23.894531 38 23 38.894531 23 40 C 23 41.105469 23.894531 42 25 42 C 26.105469 42 27 41.105469 27 40 C 27 38.894531 26.105469 38 25 38 Z M 31 38 C 29.894531 38 29 38.894531 29 40 C 29 41.105469 29.894531 42 31 42 C 32.105469 42 33 41.105469 33 40 C 33 38.894531 32.105469 38 31 38 Z" fill="#ffffff"/></svg>
